<?xml version="1.0" standalone="no"?>
<!DOCTYPE svg PUBLIC "-//W3C//DTD SVG 20010904//EN"
 "http://www.w3.org/TR/2001/REC-SVG-20010904/DTD/svg10.dtd">
<svg version="1.0" xmlns="http://www.w3.org/2000/svg"
 width="1024.000000pt" height="1024.000000pt" viewBox="0 0 1024.000000 1024.000000"
 preserveAspectRatio="xMidYMid meet">

<g transform="translate(0.000000,1024.000000) scale(0.100000,-0.100000)"
fill="#000000" stroke="none">
<path d="M5025 8489 c-351 -37 -672 -117 -950 -236 -267 -114 -448 -213 -635
-346 -361 -257 -593 -502 -797 -842 -253 -421 -365 -763 -424 -1295 -17 -151
-17 -580 -1 -685 40 -249 88 -470 138 -628 88 -282 284 -652 464 -875 28 -34
50 -66 50 -72 0 -5 75 -85 168 -178 376 -380 786 -630 1312 -802 190 -63 538
-126 720 -132 l85 -3 3 56 c3 55 4 57 42 72 65 25 988 544 1080 607 14 9 120
70 235 135 116 65 253 143 305 173 52 31 160 92 240 137 80 45 174 101 209
123 35 23 78 44 96 48 l33 6 -2 84 c0 46 -4 84 -7 84 -3 0 -32 -17 -65 -38
-32 -21 -135 -80 -229 -132 -93 -51 -215 -119 -270 -150 -55 -32 -206 -116
-335 -188 -216 -119 -472 -268 -710 -412 -52 -32 -160 -93 -240 -135 -80 -43
-184 -100 -232 -127 -48 -27 -101 -53 -118 -58 l-31 -9 3 86 3 85 46 17 c25
10 72 36 105 58 32 22 118 72 191 112 73 39 161 88 195 109 35 21 119 69 188
107 69 37 148 83 177 101 29 18 189 110 355 205 319 180 524 298 723 413 66
38 149 81 185 97 l65 28 3 70 c2 46 -1 71 -8 71 -14 0 -299 -152 -460 -245
-69 -40 -154 -87 -190 -105 -36 -18 -119 -65 -185 -105 -66 -39 -174 -100
-240 -135 -66 -35 -192 -106 -280 -158 -88 -52 -181 -105 -207 -118 -27 -13
-95 -56 -152 -94 -57 -39 -106 -70 -110 -70 -8 0 -139 -85 -216 -141 -65 -47
-126 -80 -167 -93 -22 -7 -23 -5 -23 51 0 32 4 63 8 70 4 7 44 23 88 37 146
46 281 158 319 264 21 59 37 71 119 91 27 7 62 21 76 31 15 11 103 57 196 103
267 133 545 279 599 316 28 19 89 63 136 98 86 62 173 108 278 144 62 22 141
66 141 79 0 4 -6 10 -12 13 -7 2 16 19 52 37 178 89 269 245 257 438 -9 153
-89 265 -239 335 l-68 32 0 606 0 606 74 36 c91 45 146 103 194 205 34 72 37
83 37 177 0 92 -3 105 -32 168 -62 130 -163 202 -321 230 -108 19 -248 -16
-334 -84 l-39 -32 -22 20 c-12 11 -53 38 -92 60 -38 22 -155 91 -260 153 -104
62 -306 181 -447 263 l-258 151 0 61 c0 211 -129 376 -337 430 -31 8 -70 15
-87 15 l-29 0 6 -112 c3 -62 3 -256 0 -431 l-6 -317 -36 6 c-112 19 -183 48
-249 102 l-44 35 -36 -17 c-42 -20 -80 -42 -627 -363 -93 -55 -217 -125 -275
-155 -172 -89 -160 -75 -154 -176 3 -48 10 -107 17 -132 6 -25 12 -47 13 -50
0 -3 7 -26 14 -52 12 -40 16 -45 29 -35 11 9 10 5 -3 -20 -9 -18 -27 -40 -40
-48 -21 -14 -27 -14 -67 5 -58 26 -68 25 -105 -11 -17 -16 -58 -41 -90 -54
-32 -13 -62 -30 -66 -37 -4 -7 -10 -71 -14 -143 -5 -77 -10 -118 -14 -100 l-6
30 -7 -34 c-11 -51 -9 -61 12 -61 18 0 19 -13 26 -207 4 -115 5 -275 1 -357
-4 -81 -4 -188 0 -238 l7 -89 61 -29 c34 -16 75 -40 91 -54 l30 -25 75 46 c41
25 129 76 195 114 66 37 172 97 235 134 298 174 518 295 546 301 l30 6 0 114
-1 114 -113 62 c-62 35 -165 94 -230 131 -64 38 -169 98 -232 134 -63 36 -167
95 -230 131 -63 36 -123 72 -132 80 -16 13 -15 16 15 36 17 12 48 49 68 83
l35 61 100 -52 c54 -28 196 -108 314 -177 263 -154 485 -279 494 -279 3 0 30
19 59 43 57 46 197 111 263 122 l41 6 7 -76 c4 -42 4 -259 0 -481 l-7 -404
-26 6 c-117 26 -233 77 -291 130 l-39 36 -68 -45 c-38 -25 -160 -97 -273 -160
-113 -63 -324 -181 -468 -263 l-264 -148 6 -61 c4 -33 2 -85 -4 -114 -6 -30
-15 -93 -20 -140 -5 -46 -14 -87 -18 -90 -16 -10 -20 -81 -5 -81 7 0 13 9 13
20 0 11 5 20 10 20 6 0 10 -9 10 -20 0 -15 7 -20 26 -20 14 0 22 -4 19 -10 -4
-6 2 -7 17 -1 13 5 22 14 21 20 -2 6 3 8 10 5 7 -2 24 7 37 21 13 14 31 25 40
25 9 0 83 -41 165 -91 424 -259 769 -448 790 -433 7 5 29 22 49 37 47 38 168
87 215 87 67 0 65 -8 57 263 -3 135 -3 414 0 620 l7 375 66 17 c81 20 233 98
264 134 l23 28 35 -24 c18 -13 104 -62 189 -110 85 -47 214 -121 285 -164 72
-43 221 -129 333 -191 l204 -114 1 -124 c2 -95 6 -133 19 -158 19 -38 32 -26
-122 -112 -99 -54 -435 -250 -767 -447 -106 -62 -195 -113 -198 -113 -3 0 -34
18 -68 39 -72 45 -135 68 -211 77 l-53 6 -6 -317 c-4 -175 -7 -374 -7 -442 0
-143 6 -137 -108 -99 -150 51 -212 105 -288 251 l-57 110 6 76 5 77 -72 44
c-39 25 -102 62 -141 83 -38 21 -140 80 -225 130 -211 126 -366 212 -485 272
-55 28 -134 71 -175 97 -79 49 -105 55 -149 31 -54 -28 -148 -33 -230 -12
-136 34 -225 95 -282 194 -46 80 -55 107 -63 193 -8 84 7 158 48 238 40 79
150 169 236 192 l25 6 7 550 c3 302 9 574 13 605 l7 56 -49 12 c-93 24 -172
89 -236 197 -119 199 -45 462 156 558 40 19 99 40 132 46 115 23 249 -7 339
-77 l46 -36 53 33 c28 18 137 82 241 143 104 60 212 124 240 142 81 51 414
239 491 277 l70 34 6 95 c7 109 42 211 99 286 43 57 153 116 250 134 36 6 71
13 78 15 9 3 12 44 12 164 l0 160 -27 -1 c-16 -1 -64 -5 -108 -10z m-976 -694
c58 -29 77 -129 35 -176 -19 -21 -73 -34 -107 -25 -13 3 -36 17 -50 30 -23 21
-27 33 -27 79 0 43 4 58 23 74 39 36 81 42 126 18z m1701 -483 c102 -60 275
-162 385 -227 110 -65 253 -150 318 -189 l118 -71 2 -102 2 -101 -75 -37 c-65
-32 -201 -111 -670 -385 -63 -37 -140 -80 -170 -95 -30 -15 -67 -36 -82 -46
-35 -25 -45 -24 -84 11 -42 36 -178 103 -259 126 -33 9 -63 21 -66 26 -5 8 -6
316 -1 874 l2 202 63 11 c78 13 191 69 236 115 l35 36 30 -19 c17 -11 114 -69
216 -129z m-1165 -411 c107 -48 137 -172 63 -257 -39 -44 -77 -64 -122 -64
-95 0 -176 78 -176 170 0 57 24 103 68 133 64 43 104 47 167 18z m2220 -554
c17 -8 42 -17 58 -21 l27 -6 0 -608 0 -607 -51 -18 c-28 -10 -69 -35 -91 -55
-39 -35 -40 -36 -66 -20 -15 9 -72 42 -127 73 -55 32 -174 100 -265 153 -273
159 -329 191 -470 270 -197 110 -189 102 -179 160 4 27 4 76 0 111 -4 34 -5
64 -1 66 3 2 53 28 111 57 57 29 174 94 259 144 276 162 493 287 590 341 l95
52 40 -38 c22 -21 54 -45 70 -54z m-4004 -247 c104 -54 108 -208 7 -270 -94
-57 -238 23 -238 132 0 118 124 192 231 138z m1240 -243 c117 -79 23 -278
-115 -243 -39 10 -85 55 -97 96 -28 94 30 169 132 170 32 0 57 -7 80 -23z
m526 -1038 c64 -31 97 -91 91 -169 -4 -49 -10 -66 -34 -91 -63 -67 -135 -84
-210 -50 -137 62 -132 241 9 310 53 26 89 27 144 0z m2284 -520 c60 -30 61
-30 42 -51 -29 -33 -123 -93 -255 -165 -117 -63 -173 -95 -388 -228 -52 -32
-187 -112 -300 -178 -113 -66 -236 -141 -275 -166 l-70 -47 0 60 c0 34 -4 75
-8 93 -8 32 -8 32 61 67 38 19 136 75 218 124 82 48 181 106 219 127 39 22
117 68 174 103 57 35 176 104 264 154 88 49 177 101 196 114 20 13 41 24 49
24 7 0 40 -14 73 -31z m-3826 -40 c44 -22 112 -62 150 -88 39 -26 127 -74 196
-108 69 -33 151 -76 182 -96 53 -34 124 -75 472 -267 83 -46 175 -99 205 -118
30 -19 109 -64 175 -100 66 -36 161 -90 210 -120 50 -30 117 -70 150 -89 33
-19 80 -54 105 -78 25 -24 81 -68 125 -97 74 -50 81 -58 92 -101 6 -25 14 -51
18 -57 10 -16 -36 -11 -80 9 -22 10 -84 49 -137 87 -169 120 -268 180 -655
393 -394 217 -480 264 -623 341 -207 110 -685 382 -704 400 -7 7 9 101 21 123
7 12 15 9 98 -34z m-75 -304 c7 -9 43 -32 79 -52 36 -20 89 -52 116 -72 43
-30 351 -211 360 -211 2 0 43 -23 92 -51 170 -99 409 -236 583 -334 96 -54
243 -137 325 -185 83 -48 213 -122 290 -165 231 -129 305 -183 305 -222 0 -31
-27 -83 -43 -83 -6 0 -48 24 -92 53 -102 69 -433 258 -720 412 -49 27 -106 58
-125 70 -19 12 -93 55 -165 95 -71 40 -150 85 -175 100 -25 15 -106 60 -180
100 -74 40 -198 110 -275 155 -276 161 -351 204 -398 226 -35 17 -46 27 -41
39 3 8 9 47 11 87 5 64 7 71 23 63 9 -5 23 -16 30 -25z"/>
<path d="M5741 6898 c-79 -54 -101 -136 -59 -218 81 -156 296 -96 300 84 1 88
-56 147 -149 154 -48 3 -64 0 -92 -20z"/>
<path d="M6274 5846 c-31 -31 -34 -40 -34 -90 0 -50 4 -60 35 -95 58 -63 136
-62 194 5 36 40 41 95 16 144 -20 38 -82 70 -136 70 -33 0 -47 -6 -75 -34z"/>
<path d="M6246 7779 c-68 -80 6 -214 99 -179 44 17 75 58 75 102 0 74 -32 107
-102 108 -40 0 -50 -4 -72 -31z"/>
<path d="M3400 6710 c-8 -5 -27 -10 -42 -10 -33 0 -59 -10 -53 -19 2 -4 5 -24
7 -44 2 -42 8 -45 27 -19 9 13 22 17 40 15 18 -3 22 -2 13 5 -10 7 -10 12 3
22 16 13 16 15 -1 20 -16 6 -15 9 11 23 17 9 26 16 20 16 -5 1 -17 -4 -25 -9z"/>
<path d="M7490 6098 c-51 -35 -72 -82 -66 -147 5 -60 26 -94 76 -128 78 -54
184 -1 219 109 22 66 -14 140 -86 177 -37 19 -107 13 -143 -11z"/>
<path d="M5790 4829 c-41 -16 -90 -70 -101 -111 -18 -70 6 -144 65 -196 70
-61 155 -52 224 22 86 94 61 225 -53 277 -44 20 -96 23 -135 8z"/>
<path d="M3343 4670 c-20 -8 -23 -17 -24 -62 0 -29 -3 -73 -5 -98 -3 -25 -2
-88 2 -140 l8 -95 9 100 c5 55 9 116 11 135 1 19 5 40 9 47 4 6 4 18 1 27 -3
9 -1 16 4 16 6 0 12 12 14 28 2 15 8 26 15 25 7 -2 10 4 7 12 -7 17 -19 18
-51 5z"/>
<path d="M3750 4275 c-7 -8 -17 -12 -23 -8 -6 4 -7 1 -2 -7 6 -10 4 -11 -11
-6 -38 16 -54 18 -54 8 0 -6 14 -13 31 -17 26 -6 36 -2 57 19 15 14 24 26 20
26 -3 0 -11 -7 -18 -15z"/>
<path d="M2373 2719 c-247 -30 -492 -188 -595 -385 -68 -130 -103 -338 -79
-466 15 -77 93 -244 148 -316 76 -100 223 -207 343 -251 188 -68 438 -58 598
23 79 40 241 156 279 201 119 138 185 354 162 534 -34 280 -190 465 -505 600
-139 59 -230 75 -351 60z m7 -164 c0 -32 -4 -55 -11 -55 -6 0 -30 -13 -54 -30
-24 -16 -48 -30 -52 -30 -5 0 -40 -21 -78 -46 -39 -25 -73 -47 -76 -50 -4 -2
-24 10 -44 26 -85 68 -190 9 -188 -105 1 -40 5 -53 27 -72 15 -13 33 -23 40
-23 8 0 13 -12 13 -27 0 -16 4 -90 8 -165 7 -114 6 -138 -6 -138 -7 0 -23 -12
-36 -27 l-22 -28 -1 28 c0 15 -7 39 -17 53 -14 22 -15 45 -10 161 6 125 5 138
-15 177 -24 47 -27 120 -6 163 7 15 29 38 48 51 31 21 44 23 130 20 l95 -3 95
55 c52 30 108 69 125 87 16 18 31 33 33 33 1 0 2 -25 2 -55z m343 -69 c57 -40
60 -41 132 -38 89 3 132 -12 166 -59 22 -31 24 -44 26 -159 0 -69 6 -170 11
-225 9 -92 8 -103 -10 -137 -19 -34 -20 -38 -4 -53 10 -10 16 -33 16 -58 -1
-101 -82 -192 -201 -227 -43 -13 -109 -44 -159 -75 -103 -64 -150 -88 -157
-81 -3 3 -3 16 1 29 4 17 29 38 76 67 69 42 151 121 131 128 -6 2 -62 -27
-126 -63 l-115 -66 -46 17 c-24 9 -48 22 -52 29 -15 24 -230 135 -262 135 -19
0 -20 4 -14 38 3 20 9 40 13 44 3 4 42 25 86 47 44 22 111 60 148 85 l68 45
117 -63 c64 -34 135 -71 157 -81 46 -23 52 -45 14 -56 -15 -3 -55 -22 -90 -42
-35 -19 -81 -40 -101 -46 -38 -13 -127 -86 -116 -96 9 -10 309 112 334 136 23
21 24 21 30 3 33 -93 158 -83 209 17 8 15 15 52 15 82 l0 53 -45 22 -45 22 0
141 0 141 50 47 c43 40 50 52 50 85 0 76 -50 126 -126 126 -29 0 -44 -7 -70
-35 l-33 -36 -50 36 c-27 20 -80 53 -117 73 -85 47 -94 60 -71 107 l17 35 42
-26 c24 -15 69 -46 101 -68z m-63 -128 c149 -88 171 -116 108 -137 -18 -6 -81
-38 -141 -70 -87 -48 -113 -58 -135 -52 -15 4 -45 4 -67 0 -22 -4 -42 -4 -45
0 -14 21 -241 143 -256 137 -12 -5 -15 -2 -10 10 3 8 6 23 6 33 0 12 32 33
105 70 58 28 122 66 141 84 l36 31 20 -27 c25 -35 50 -34 80 1 22 27 23 28 33
8 6 -11 62 -51 125 -88z m-445 -233 c60 -31 117 -54 126 -52 14 4 17 -2 15
-32 0 -20 2 -52 7 -71 7 -35 6 -35 -50 -65 -31 -16 -83 -46 -114 -67 l-58 -37
-55 32 -55 32 6 150 c5 134 7 152 25 168 14 11 24 14 32 8 7 -6 61 -35 121
-66z m633 53 c8 -8 12 -57 12 -153 0 -86 4 -145 11 -152 7 -7 1 -14 -20 -22
-16 -7 -37 -21 -47 -32 -9 -10 -20 -19 -24 -19 -3 0 -49 27 -101 61 -52 33
-104 65 -115 69 -21 8 -21 10 -7 62 14 48 20 55 62 76 25 12 80 44 121 71 82
54 90 57 108 39z m-901 -536 c32 -43 67 -51 116 -24 35 19 42 20 56 8 9 -7 34
-23 57 -34 67 -34 222 -141 244 -169 19 -25 28 -58 13 -51 -5 2 -35 16 -67 31
-33 15 -87 45 -121 67 -83 51 -128 70 -199 80 -94 14 -147 76 -145 172 l1 53
13 -53 c7 -30 21 -66 32 -80z"/>
<path d="M2462 1710 c0 -19 2 -27 5 -17 2 9 2 25 0 35 -3 9 -5 1 -5 -18z"/>
<path d="M2775 1620 c-3 -6 1 -7 9 -4 18 7 21 14 7 14 -6 0 -13 -4 -16 -10z"/>
<path d="M2440 2283 c0 -127 6 -153 31 -153 24 0 32 45 28 154 -4 92 -4 90
-36 100 -23 7 -23 7 -23 -101z"/>
<path d="M7787 2618 c38 -41 47 -81 28 -122 -27 -57 -108 -84 -147 -49 -16 14
-18 15 -18 0 0 -14 -111 -86 -228 -147 -35 -19 -41 -26 -36 -44 4 -11 7 -21 8
-22 205 -111 269 -152 259 -166 -4 -8 0 -9 13 -3 10 4 44 9 76 11 33 1 67 10
84 21 15 10 73 43 128 74 96 53 101 58 103 90 2 33 1 35 -87 78 -97 48 -160
94 -160 116 0 18 30 34 49 27 11 -3 12 0 7 14 -5 11 -12 31 -16 45 -11 38 -40
78 -64 91 -20 10 -20 10 1 -14z"/>
<path d="M7602 2588 c-7 -7 -12 -22 -12 -33 0 -57 -166 -135 -285 -135 -58 0
-109 -27 -133 -69 -26 -45 -29 -109 -7 -151 14 -27 13 -38 -5 -120 -27 -120
-26 -154 6 -195 38 -51 69 -68 93 -53 15 9 17 15 9 25 -6 8 -11 71 -12 158 -1
126 -3 146 -18 150 -9 3 -28 15 -42 26 -22 17 -26 29 -26 69 0 41 5 55 31 85
26 30 37 35 74 35 27 0 51 -7 68 -20 l25 -20 79 48 c43 26 101 61 130 76 48
27 51 30 42 54 -5 14 -7 38 -4 54 7 31 5 34 -13 16z"/>
<path d="M8125 2404 c-33 -8 -71 -12 -84 -9 -24 6 -24 6 5 -28 l29 -34 32 28
c37 32 109 47 142 30 13 -7 21 -8 21 -2 0 26 -71 33 -145 15z"/>
<path d="M8308 2275 c-7 -58 -31 -94 -77 -112 l-36 -14 3 -153 c3 -153 3 -153
28 -165 24 -11 26 -9 50 43 24 53 24 57 14 164 -11 103 -10 113 9 150 24 48
37 117 23 126 -5 3 -12 -13 -14 -39z"/>
<path d="M7338 2175 c-15 -13 -24 -25 -21 -28 3 -3 7 -68 9 -143 4 -105 2
-139 -8 -146 -9 -5 -4 -8 14 -8 16 0 42 -13 62 -30 19 -17 37 -27 40 -22 8 13
192 122 206 122 8 0 9 7 5 18 -4 9 -9 36 -12 58 -5 38 -9 43 -43 53 -77 23
-195 95 -215 131 -9 17 -11 17 -37 -5z"/>
<path d="M8045 2154 c-59 -52 -193 -116 -217 -103 -18 9 -18 8 -8 -11 6 -12 9
-39 5 -63 l-6 -42 91 -49 c50 -27 101 -59 114 -71 l22 -21 18 23 c9 13 28 26
41 29 24 6 24 7 27 157 3 142 2 153 -17 169 -11 10 -22 17 -25 17 -3 0 -23
-16 -45 -35z"/>
<path d="M7711 1888 c-19 -5 -48 -20 -65 -33 -17 -13 -71 -45 -121 -72 -126
-68 -125 -73 39 -157 71 -36 138 -66 148 -66 19 0 223 103 243 122 17 17 -98
-32 -147 -63 -27 -16 -48 -25 -48 -20 0 11 73 56 161 99 74 36 81 37 77 20 -1
-7 4 -23 11 -36 7 -13 11 -30 9 -38 -2 -8 -70 -50 -153 -93 l-150 -78 -123 67
c-135 74 -162 94 -162 120 0 15 -13 18 -107 19 -59 1 -111 5 -116 10 -5 5 -8
29 -6 53 4 40 2 44 -15 40 -16 -4 -18 -13 -14 -73 3 -59 8 -72 33 -99 34 -36
83 -47 137 -31 40 12 43 11 162 -50 117 -61 161 -89 136 -89 -6 0 -19 4 -28 9
-9 4 -35 11 -57 15 -40 7 -40 7 15 -19 30 -15 62 -32 70 -40 38 -32 54 -27
194 60 183 115 219 131 253 119 15 -5 26 -13 26 -19 -1 -5 -89 -54 -197 -108
-174 -89 -194 -101 -179 -113 10 -7 24 -14 31 -14 23 0 326 162 415 223 97 66
117 94 117 159 0 38 6 48 51 94 71 72 59 89 -18 26 -33 -28 -64 -48 -68 -44
-4 4 -5 -10 -1 -30 9 -52 -14 -93 -68 -120 -48 -23 -71 -21 -123 12 -30 18
-33 24 -33 68 0 41 -3 48 -20 49 -25 2 -199 84 -239 112 -16 12 -31 21 -33 20
-1 0 -18 -5 -37 -11z"/>
<path d="M7400 1505 c14 -8 30 -14 35 -14 6 0 -1 6 -15 14 -14 8 -29 14 -35
14 -5 0 1 -6 15 -14z"/>
</g>
</svg>
